HIERARCHY
ROOT joint_Root
{
	OFFSET 0.0 0.0 0.0
	CHANNELS 6 Xposition Yposition Zposition Zrotation Xrotation Yrotation 
	JOINT Hips
	{
		OFFSET -0.726466 93.3139 -2.00062
		CHANNELS 6 Xposition Yposition Zposition Zrotation Xrotation Yrotation 
		JOINT Spine
		{
			OFFSET 15.7357 0.0 0.0
			CHANNELS 6 Xposition Yposition Zposition Zrotation Xrotation Yrotation 
			JOINT Chest
			{
				OFFSET 8.98455 -0.406207 0.0
				CHANNELS 6 Xposition Yposition Zposition Zrotation Xrotation Yrotation 
				JOINT Neck
				{
					OFFSET 16.3773 0.0 0.0
					CHANNELS 6 Xposition Yposition Zposition Zrotation Xrotation Yrotation 
					JOINT Head
					{
						OFFSET 6.45672 0.0 0.0
						CHANNELS 6 Xposition Yposition Zposition Zrotation Xrotation Yrotation 
						End Site
						{
							OFFSET 0.0 0.0 0.0
						}
					}
				}
				JOINT Shoulder_L
				{
					OFFSET 12.9942 -0.242716 4.98039
					CHANNELS 6 Xposition Yposition Zposition Zrotation Xrotation Yrotation 
					JOINT UpperArm_L
					{
						OFFSET 5.34809 0.0 0.0
						CHANNELS 6 Xposition Yposition Zposition Zrotation Xrotation Yrotation 
						JOINT LowerArm_L
						{
							OFFSET 24.3286 1.87007e-05 0.0
							CHANNELS 6 Xposition Yposition Zposition Zrotation Xrotation Yrotation 
							JOINT Hand_L
							{
								OFFSET 22.2916 0.0 0.0
								CHANNELS 6 Xposition Yposition Zposition Zrotation Xrotation Yrotation 
								End Site
								{
									OFFSET 0.0 0.0 0.0
								}
							}
						}
					}
				}
				JOINT Shoulder_R
				{
					OFFSET 12.9945 -0.242716 -4.98039
					CHANNELS 6 Xposition Yposition Zposition Zrotation Xrotation Yrotation 
					JOINT UpperArm_R
					{
						OFFSET -5.34813 0.0 0.0
						CHANNELS 6 Xposition Yposition Zposition Zrotation Xrotation Yrotation 
						JOINT LowerArm_R
						{
							OFFSET -24.3289 0.000322201 0.0
							CHANNELS 6 Xposition Yposition Zposition Zrotation Xrotation Yrotation 
							JOINT Hand_R
							{
								OFFSET -22.2915 -0.000108084 0.0
								CHANNELS 6 Xposition Yposition Zposition Zrotation Xrotation Yrotation 
								End Site
								{
									OFFSET 0.0 0.0 0.0
								}
							}
						}
					}
				}
			}
		}
		JOINT UpperLeg_L
		{
			OFFSET -2.19248 -6.46944 0.0
			CHANNELS 6 Xposition Yposition Zposition Zrotation Xrotation Yrotation 
			JOINT LowerLeg_L
			{
				OFFSET 39.0811 0.0 -1.23785e-05
				CHANNELS 6 Xposition Yposition Zposition Zrotation Xrotation Yrotation 
				JOINT Foot_L
				{
					OFFSET 40.9854 0.0 -1.26872e-05
					CHANNELS 6 Xposition Yposition Zposition Zrotation Xrotation Yrotation 
					JOINT Toes_L
					{
						OFFSET 11.7543 0.0 0.0
						CHANNELS 6 Xposition Yposition Zposition Zrotation Xrotation Yrotation 
						End Site
						{
							OFFSET 0.0 0.0 0.0
						}
					}
				}
			}
		}
		JOINT UpperLeg_R
		{
			OFFSET -2.19251 6.46944 0.0
			CHANNELS 6 Xposition Yposition Zposition Zrotation Xrotation Yrotation 
			JOINT LowerLeg_R
			{
				OFFSET -39.0811 -0.00228153 -0.0401928
				CHANNELS 6 Xposition Yposition Zposition Zrotation Xrotation Yrotation 
				JOINT Foot_R
				{
					OFFSET -40.9854 0.0 0.0
					CHANNELS 6 Xposition Yposition Zposition Zrotation Xrotation Yrotation 
					JOINT Toes_R
					{
						OFFSET -11.7543 0.0 0.0
						CHANNELS 6 Xposition Yposition Zposition Zrotation Xrotation Yrotation 
						End Site
						{
							OFFSET 0.0 0.0 0.0
						}
					}
				}
			}
		}
	}
}
MOTION
Frames:	4
Frame Time:	0.0333333
0.000000 0.000000 0.000000 0.000000 0.000000 -0.000000 76.636900 88.556200 154.021000 -82.451700 22.008700 -177.071000 15.735700 0.000005 -0.000001 91.812100 82.971600 -89.323100 8.984550 -0.406207 -0.000000 6.279880 0.411074 4.949920 16.377300 -0.000001 -0.000001 4.426340 4.100390 1.591240 6.456720 -0.000001 -0.000000 6.113660 9.208390 -5.098450 12.994200 -0.242716 4.980390 -89.900000 -0.308061 -72.017000 5.348090 -0.000007 -0.000001 -71.100900 42.647000 -23.017200 24.328600 0.000019 0.000005 3.270720 8.601040 -20.924300 22.291600 -0.000001 0.000005 7.773660 5.438060 -4.211850 12.994500 -0.242716 -4.980390 87.476700 8.109640 -72.651700 -5.348130 -0.000001 -0.000004 -59.399800 19.260800 -15.527700 -24.328900 0.000322 -0.000009 1.690940 10.623200 -9.103540 -22.291500 -0.000108 -0.000004 13.112700 5.300440 0.061705 -2.192480 -6.469440 -0.000000 -170.414000 -2.993790 -13.898300 39.081100 -0.000007 -0.000012 0.195573 -0.054094 74.537000 40.985400 -0.000006 -0.000013 12.835000 -10.269800 -45.110400 11.754300 -0.000000 0.000003 -0.011326 -0.113304 -21.194900 -2.192510 6.469440 -0.000001 179.345000 12.249500 164.974000 -39.081100 -0.002282 -0.040193 -0.174161 0.240546 36.416000 -40.985400 0.000008 0.000006 -5.483500 0.112054 -64.475400 -11.754300 -0.000006 -0.000006 -0.009524 -0.100045 -20.648700
0.000000 0.000000 0.000000 0.000000 0.000000 -0.000000 78.040100 89.414900 151.943000 -83.900900 21.828500 -176.794000 15.735700 0.000005 -0.000001 96.793200 82.944200 -94.795500 8.984550 -0.406207 -0.000000 6.223030 1.637630 3.901990 16.377300 -0.000001 -0.000001 4.484620 4.061940 1.804550 6.456720 -0.000001 -0.000000 6.184010 8.129850 -4.263430 12.994200 -0.242716 4.980390 -89.685300 -0.934330 -71.385400 5.348090 -0.000007 -0.000001 -72.841700 37.159900 -19.335100 24.328600 0.000019 0.000005 4.147480 14.528100 -16.126100 22.291600 -0.000001 0.000005 6.588440 5.391520 -2.662400 12.994500 -0.242716 -4.980390 87.698400 7.741700 -73.386900 -5.348130 -0.000001 -0.000004 -57.148900 17.897400 -19.887000 -24.328900 0.000322 -0.000009 2.026140 10.692400 -10.800500 -22.291500 -0.000108 -0.000004 15.244700 5.310330 -0.219346 -2.192480 -6.469440 -0.000000 -172.981000 -6.129310 -18.391800 39.081100 -0.000007 -0.000012 0.205980 -0.055445 74.932700 40.985400 -0.000006 -0.000013 11.246100 -9.479950 -47.232600 11.754300 -0.000000 0.000003 -0.011077 -0.111526 -21.122100 -2.192510 6.469440 -0.000001 178.043000 12.502200 168.063000 -39.081100 -0.002282 -0.040193 -0.172478 0.264189 33.637100 -40.985400 0.000008 0.000006 -5.434840 0.275281 -65.039200 -11.754300 -0.000006 -0.000006 -0.009779 -0.101977 -20.727700
0.000000 0.000000 0.000000 0.000000 0.000000 -0.000000 79.391800 90.164700 149.868000 -85.022800 22.023200 -176.587000 15.735700 0.000005 -0.000001 101.738000 82.821100 -100.155000 8.984550 -0.406207 -0.000000 6.259730 2.891720 3.004110 16.377300 -0.000001 -0.000001 4.567090 4.195570 2.015300 6.456720 -0.000001 -0.000000 6.252920 7.090210 -4.122960 12.994200 -0.242716 4.980390 -89.472800 -1.473870 -70.315500 5.348090 -0.000007 -0.000001 -72.791800 31.471700 -16.285000 24.328600 0.000019 0.000005 4.387550 18.590900 -13.532000 22.291600 -0.000001 0.000005 6.442150 5.362560 -1.760160 12.994500 -0.242716 -4.980390 87.963700 7.244170 -74.253800 -5.348130 -0.000001 -0.000004 -55.146600 16.315800 -23.895600 -24.328900 0.000322 -0.000009 2.445550 10.684600 -12.978000 -22.291500 -0.000108 -0.000004 15.950300 5.313660 -0.313977 -2.192480 -6.469440 -0.000000 -175.211000 -9.079530 -21.784900 39.081100 -0.000007 -0.000012 0.202695 -0.064431 72.364400 40.985400 -0.000006 -0.000013 9.381420 -5.047290 -50.018100 11.754300 -0.000000 0.000003 -0.009905 -0.102937 -20.770700 -2.192510 6.469440 -0.000001 176.888000 13.668800 171.296000 -39.081100 -0.002282 -0.040193 -0.158670 0.274359 30.556100 -40.985400 0.000008 0.000006 -5.087070 1.601640 -65.248600 -11.754300 -0.000006 -0.000006 -0.009436 -0.099377 -20.621400
0.000000 0.000000 0.000000 0.000000 0.000000 -0.000000 80.778800 90.711500 147.785000 -85.878600 21.897800 -176.306000 15.735700 0.000005 -0.000001 105.486000 82.556100 -104.180000 8.984550 -0.406207 -0.000000 6.549400 3.948940 2.384100 16.377300 -0.000001 -0.000001 4.480560 4.094180 2.004840 6.456720 -0.000001 -0.000000 6.080550 6.078280 -4.238540 12.994200 -0.242716 4.980390 -89.429900 -1.528220 -69.539900 5.348090 -0.000007 -0.000001 -71.332800 25.996700 -13.503000 24.328600 0.000019 0.000005 3.954010 17.955400 -12.637400 22.291600 -0.000001 0.000005 7.921520 5.345240 -1.233530 12.994500 -0.242716 -4.980390 88.141200 6.968590 -75.024700 -5.348130 -0.000001 -0.000004 -52.546700 14.708500 -27.647400 -24.328900 0.000322 -0.000009 2.583750 9.339710 -15.546600 -22.291500 -0.000108 -0.000004 15.435700 5.323900 -0.609024 -2.192480 -6.469440 -0.000000 -176.914000 -11.525400 -24.173000 39.081100 -0.000007 -0.000012 0.178779 -0.075329 67.150200 40.985400 -0.000006 -0.000013 7.185590 -1.074980 -52.575500 11.754300 -0.000000 0.000003 -0.008688 -0.093567 -20.387700 -2.192510 6.469440 -0.000001 175.768000 15.438900 174.669000 -39.081100 -0.002282 -0.040193 -0.154173 0.300106 27.688300 -40.985400 0.000008 0.000006 -4.755220 3.207390 -65.558000 -11.754300 -0.000006 -0.000006 -0.010154 -0.104787 -20.842600
